<svg width="14" height="14" viewBox="0 0 14 14" fill="none" xmlns="http://www.w3.org/2000/svg">
<path d="M0.699998 0.699998C0.815939 0.583891 0.953633 0.49178 1.1052 0.428934C1.25677 0.366089 1.41925 0.33374 1.58333 0.33374C1.74741 0.33374 1.90989 0.366089 2.06146 0.428934C2.21303 0.49178 2.35072 0.583891 2.46666 0.699998L7 5.23166L11.5333 0.699998C11.6493 0.583997 11.787 0.49198 11.9386 0.4292C12.0902 0.366421 12.2526 0.334109 12.4167 0.334109C12.5807 0.334109 12.7432 0.366421 12.8947 0.4292C13.0463 0.49198 13.184 0.583997 13.3 0.699998C13.416 0.815999 13.508 0.953712 13.5708 1.10527C13.6336 1.25684 13.6659 1.41928 13.6659 1.58333C13.6659 1.74738 13.6336 1.90982 13.5708 2.06139C13.508 2.21295 13.416 2.35066 13.3 2.46666L8.76833 7L13.3 11.5333C13.5343 11.7676 13.6659 12.0853 13.6659 12.4167C13.6659 12.748 13.5343 13.0657 13.3 13.3C13.0657 13.5343 12.748 13.6659 12.4167 13.6659C12.0853 13.6659 11.7676 13.5343 11.5333 13.3L7 8.76833L2.46666 13.3C2.23239 13.5343 1.91465 13.6659 1.58333 13.6659C1.25202 13.6659 0.934272 13.5343 0.699998 13.3C0.465723 13.0657 0.334109 12.748 0.334109 12.4167C0.334109 12.0853 0.465723 11.7676 0.699998 11.5333L5.23166 7L0.699998 2.46666C0.583891 2.35072 0.49178 2.21303 0.428934 2.06146C0.366089 1.90989 0.33374 1.74741 0.33374 1.58333C0.33374 1.41925 0.366089 1.25677 0.428934 1.1052C0.49178 0.953633 0.583891 0.815939 0.699998 0.699998Z" fill="#FF1447"/>
</svg>
