<svg width="20" height="20" viewBox="0 0 20 20" fill="none" xmlns="http://www.w3.org/2000/svg">
<path d="M5.2625 5.14669C5.05416 4.61502 5.0625 4.00752 5.155 3.45169C5.79182 3.6425 6.38991 3.94437 6.92166 4.34336C7.155 4.52169 7.46083 4.57919 7.74583 4.49336C8.47714 4.27455 9.23666 4.16449 10 4.16669C10.8008 4.16669 11.5617 4.28336 12.2525 4.49252C12.5375 4.57919 12.8433 4.52086 13.0758 4.34252C13.6073 3.94362 14.2051 3.64176 14.8417 3.45086C14.9342 4.00669 14.9417 4.61419 14.735 5.14502C14.61 5.46502 14.6725 5.83336 14.9083 6.09502C15.5117 6.76419 15.8333 7.53336 15.8333 8.33336C15.8333 10.095 14.1917 11.8225 11.555 12.3484C10.895 12.48 10.6375 13.3109 11.1425 13.7867C11.4667 14.0917 11.6667 14.5217 11.6667 15V17.5C11.6667 17.721 11.7545 17.933 11.9107 18.0893C12.067 18.2456 12.279 18.3334 12.5 18.3334C12.721 18.3334 12.933 18.2456 13.0893 18.0893C13.2455 17.933 13.3333 17.721 13.3333 17.5V15C13.3333 14.525 13.2333 14.0734 13.055 13.6642C15.5692 12.7917 17.5 10.8275 17.5 8.33336C17.5 7.21086 17.0967 6.17919 16.4275 5.31502C16.6025 4.63169 16.5867 3.94336 16.52 3.41502C16.4608 2.94169 16.3783 2.32169 16.045 1.95169C15.5492 1.40252 14.7283 1.72586 14.145 1.92502C13.5192 2.13676 12.9239 2.42953 12.3742 2.79586C11.5984 2.59787 10.8007 2.49847 10 2.50002C9.17166 2.50002 8.3725 2.60419 7.62416 2.79669C7.07443 2.43035 6.47909 2.13759 5.85333 1.92586C5.27 1.72586 4.44833 1.40252 3.9525 1.95169C3.6125 2.32836 3.54166 2.89919 3.48083 3.38419L3.47666 3.41586C3.41 3.94502 3.395 4.63419 3.57 5.31836C2.90333 6.18169 2.5 7.21169 2.5 8.33336C2.5 10.8267 4.43083 12.7917 6.945 13.6642C6.76302 14.0803 6.66829 14.5292 6.66666 14.9834L6.52666 15.0117C5.92916 15.0942 5.54666 15.02 5.28666 14.91C4.65333 14.6417 4.32666 13.9659 3.92833 13.4492C3.68 13.1284 3.31833 12.7275 2.76333 12.5425C2.65948 12.5079 2.54983 12.4942 2.44065 12.5019C2.33147 12.5097 2.22489 12.539 2.127 12.5879C1.9293 12.6869 1.779 12.8603 1.70916 13.07C1.63932 13.2798 1.65566 13.5087 1.75459 13.7064C1.85351 13.904 2.02692 14.0543 2.23666 14.1242C2.70166 14.2792 3.02333 15.0759 3.31833 15.4292C3.62916 15.8025 4.0425 16.1925 4.635 16.4442C5.20333 16.6859 5.87083 16.7717 6.66666 16.6742V17.5C6.66666 17.721 6.75446 17.933 6.91074 18.0893C7.06702 18.2456 7.27898 18.3334 7.5 18.3334C7.72101 18.3334 7.93297 18.2456 8.08925 18.0893C8.24553 17.933 8.33333 17.721 8.33333 17.5V15C8.33333 14.5217 8.53333 14.0917 8.8575 13.7867C9.36333 13.31 9.105 12.48 8.445 12.3484C5.8075 11.8225 4.16666 10.095 4.16666 8.33336C4.16666 7.53502 4.4875 6.76586 5.09 6.09669C5.32583 5.83502 5.3875 5.46669 5.2625 5.14669Z" fill="white"/>
</svg>
