<svg width="20" height="20" viewBox="0 0 20 20" fill="none" xmlns="http://www.w3.org/2000/svg">
<path d="M8.00084 5.95835C8.76501 5.17752 9.76001 4.66669 10.9175 4.66669C12.1331 4.66669 13.2989 5.14957 14.1584 6.00911C15.018 6.86866 15.5008 8.03444 15.5008 9.25002V15.5H13.8342V9.25002C13.8342 8.47647 13.5269 7.73461 12.9799 7.18763C12.4329 6.64064 11.6911 6.33335 10.9175 6.33335C10.144 6.33335 9.4021 6.64064 8.85512 7.18763C8.30813 7.73461 8.00084 8.47647 8.00084 9.25002V15.5H6.33418V5.08335H8.00084V5.95835ZM2.16751 3.41669C1.83599 3.41669 1.51805 3.28499 1.28363 3.05057C1.04921 2.81615 0.917511 2.49821 0.917511 2.16669C0.917511 1.83517 1.04921 1.51722 1.28363 1.2828C1.51805 1.04838 1.83599 0.916687 2.16751 0.916687C2.49903 0.916687 2.81697 1.04838 3.05139 1.2828C3.28582 1.51722 3.41751 1.83517 3.41751 2.16669C3.41751 2.49821 3.28582 2.81615 3.05139 3.05057C2.81697 3.28499 2.49903 3.41669 2.16751 3.41669ZM1.33418 5.08335H3.00084V15.5H1.33418V5.08335Z" fill="white"/>
</svg>
