<svg width="20" height="26" viewBox="0 0 20 26" fill="none" xmlns="http://www.w3.org/2000/svg">
<path d="M10 13C10.6875 13 11.2762 12.7554 11.7663 12.2663C12.2563 11.7771 12.5008 11.1883 12.5 10.5C12.4992 9.81167 12.2546 9.22333 11.7663 8.735C11.2779 8.24667 10.6892 8.00167 10 8C9.31083 7.99833 8.7225 8.24333 8.235 8.735C7.7475 9.22667 7.5025 9.815 7.5 10.5C7.4975 11.185 7.7425 11.7738 8.235 12.2663C8.7275 12.7587 9.31583 13.0033 10 13ZM10 25.5C6.64583 22.6458 4.14083 19.995 2.485 17.5475C0.829167 15.1 0.000833333 12.8342 0 10.75C0 7.625 1.00542 5.13542 3.01625 3.28125C5.02708 1.42708 7.355 0.5 10 0.5C12.645 0.5 14.9733 1.42708 16.985 3.28125C18.9967 5.13542 20.0017 7.625 20 10.75C20 12.8333 19.1721 15.0992 17.5163 17.5475C15.8604 19.9958 13.355 22.6467 10 25.5Z" fill="#17C3B2"/>
</svg>
