<svg width="19" height="26" viewBox="0 0 19 26" fill="none" xmlns="http://www.w3.org/2000/svg">
<path d="M12.5 25.5C10.7917 25.5 9.17708 25.1717 7.65625 24.515C6.13542 23.8583 4.8075 22.9625 3.6725 21.8275C2.5375 20.6925 1.64167 19.3646 0.985 17.8438C0.328333 16.3229 0 14.7083 0 13C0 11.2708 0.328333 9.65125 0.985 8.14125C1.64167 6.63125 2.5375 5.30833 3.6725 4.1725C4.8075 3.03667 6.13542 2.14083 7.65625 1.485C9.17708 0.829167 10.7917 0.500833 12.5 0.5C13.625 0.5 14.7188 0.645833 15.7812 0.9375C16.8438 1.22917 17.8333 1.64583 18.75 2.1875C16.8542 3.29167 15.3387 4.78667 14.2037 6.6725C13.0688 8.55833 12.5008 10.6675 12.5 13C12.4992 15.3325 13.0671 17.4421 14.2037 19.3288C15.3404 21.2154 16.8558 22.71 18.75 23.8125C17.8333 24.3542 16.8438 24.7708 15.7812 25.0625C14.7188 25.3542 13.625 25.5 12.5 25.5ZM12.5 23H13.1562C13.3646 23 13.5625 22.9792 13.75 22.9375C12.5625 21.5625 11.6408 20.0263 10.985 18.3288C10.3292 16.6313 10.0008 14.855 10 13C9.99917 11.145 10.3275 9.36917 10.985 7.6725C11.6425 5.97583 12.5642 4.43917 13.75 3.0625C13.5625 3.02083 13.3646 3 13.1562 3H12.5C9.72917 3 7.36958 3.97417 5.42125 5.9225C3.47292 7.87083 2.49917 10.23 2.5 13C2.50083 15.77 3.475 18.1296 5.4225 20.0788C7.37 22.0279 9.72917 23.0017 12.5 23Z" fill="#17C3B2"/>
</svg>
