<svg width="24" height="20" viewBox="0 0 24 20" fill="none" xmlns="http://www.w3.org/2000/svg">
<g clip-path="url(#clip0_331_4)">
<path d="M24 17V19C24 19.2708 23.901 19.5052 23.7031 19.7031C23.5052 19.901 23.2708 20 23 20H1C0.729167 20 0.494792 19.901 0.296875 19.7031C0.0989583 19.5052 0 19.2708 0 19V17C0 16.7292 0.0989583 16.4948 0.296875 16.2969C0.494792 16.099 0.729167 16 1 16H23C23.2708 16 23.5052 16.099 23.7031 16.2969C23.901 16.4948 24 16.7292 24 17ZM24 9V11C24 11.2708 23.901 11.5052 23.7031 11.7031C23.5052 11.901 23.2708 12 23 12H1C0.729167 12 0.494792 11.901 0.296875 11.7031C0.0989583 11.5052 0 11.2708 0 11V9C0 8.72917 0.0989583 8.49479 0.296875 8.29688C0.494792 8.09896 0.729167 8 1 8H23C23.2708 8 23.5052 8.09896 23.7031 8.29688C23.901 8.49479 24 8.72917 24 9ZM24 1V3C24 3.27083 23.901 3.50521 23.7031 3.70312C23.5052 3.90104 23.2708 4 23 4H1C0.729167 4 0.494792 3.90104 0.296875 3.70312C0.0989583 3.50521 0 3.27083 0 3V1C0 0.729167 0.0989583 0.494792 0.296875 0.296875C0.494792 0.0989583 0.729167 0 1 0H23C23.2708 0 23.5052 0.0989583 23.7031 0.296875C23.901 0.494792 24 0.729167 24 1Z" fill="#FF1447"/>
</g>
<defs>
<clipPath id="clip0_331_4">
<rect width="24" height="20" fill="white"/>
</clipPath>
</defs>
</svg>
