<svg width="16" height="18" viewBox="0 0 16 18" fill="none" xmlns="http://www.w3.org/2000/svg">
<path d="M7.2525 7.69835C6.9976 7.84554 6.79206 8.06501 6.66188 8.329C6.5317 8.593 6.48272 8.88967 6.52114 9.1815C6.55956 9.47333 6.68364 9.74721 6.87771 9.96852C7.07178 10.1898 7.32711 10.3486 7.61142 10.4248C7.89573 10.501 8.19626 10.4912 8.47499 10.3966C8.75373 10.3021 8.99816 10.127 9.17738 9.89346C9.35661 9.65996 9.46257 9.37857 9.48187 9.08485C9.50118 8.79114 9.43295 8.4983 9.28584 8.24335C9.18813 8.07404 9.05803 7.92563 8.90295 7.8066C8.74788 7.68758 8.57088 7.60027 8.38206 7.54966C8.19324 7.49905 7.9963 7.48613 7.80249 7.51164C7.60868 7.53716 7.42179 7.6006 7.2525 7.69835ZM13.9233 9.31335C13.8256 9.20169 13.7225 9.08974 13.6142 8.97752C13.6897 8.89752 13.7631 8.8178 13.8342 8.73835C15.1717 7.23502 15.7367 5.72669 15.2133 4.82085C14.7117 3.95169 13.2192 3.69252 11.35 4.05585C11.1661 4.09197 10.9831 4.13252 10.8008 4.17752C10.7658 4.05752 10.7289 3.93808 10.69 3.81919C10.0558 1.90835 9.03167 0.665854 7.985 0.666687C6.98167 0.666687 6.01167 1.83085 5.3925 3.63169C5.33139 3.80947 5.275 3.98835 5.22334 4.16835C5.10167 4.13835 4.97945 4.11058 4.85667 4.08502C2.885 3.68085 1.2975 3.94752 0.775002 4.85502C0.274169 5.72419 0.797502 7.14669 2.04834 8.58169C2.17278 8.72335 2.30056 8.86224 2.43167 8.99835C2.27667 9.15669 2.13084 9.31585 1.99417 9.47419C0.773336 10.8892 0.280002 12.2875 0.780002 13.1534C1.29667 14.0484 2.86167 14.3409 4.7675 13.9659C4.92195 13.9353 5.07556 13.9009 5.22834 13.8625C5.28389 14.0575 5.34528 14.2511 5.4125 14.4434C6.02917 16.2075 6.99334 17.3334 7.99334 17.3334C9.02667 17.3334 10.0617 16.1225 10.6892 14.2842C10.7392 14.1392 10.785 13.9884 10.83 13.8334C11.0272 13.8822 11.2258 13.9256 11.4258 13.9634C13.2617 14.3109 14.7192 14.0384 15.2183 13.1717C15.7342 12.2759 15.2017 10.7742 13.9233 9.31335ZM1.39167 5.21002C1.71334 4.65169 3.01084 4.43335 4.71334 4.78335C4.82222 4.80558 4.93306 4.83058 5.04584 4.85835C4.87941 5.59365 4.76193 6.33918 4.69417 7.09002C4.08021 7.52174 3.49482 7.99273 2.94167 8.50002C2.82 8.37391 2.70139 8.24474 2.58584 8.11252C1.51334 6.88419 1.09 5.73419 1.39167 5.21002ZM4.63084 9.98335C4.20584 9.66085 3.81 9.33085 3.45084 8.99919C3.80917 8.66919 4.205 8.34085 4.63 8.01919C4.61445 8.34641 4.60695 8.67391 4.6075 9.00169C4.6075 9.32947 4.61528 9.65669 4.63084 9.98335ZM4.63084 13.2667C3.90852 13.4276 3.16276 13.4541 2.43084 13.345C2.23018 13.3293 2.03488 13.2726 1.857 13.1785C1.67912 13.0843 1.52245 12.9546 1.39667 12.7975C1.0925 12.2725 1.48917 11.1492 2.53334 9.93919C2.66445 9.78752 2.8 9.63974 2.94 9.49585C3.49341 10.0063 4.07997 10.4795 4.69584 10.9125C4.76428 11.6728 4.88287 12.4278 5.05084 13.1725C4.91195 13.2075 4.77167 13.2392 4.63 13.2675M10.5467 6.56835C10.2672 6.39224 9.98445 6.22196 9.69834 6.05752C9.41611 5.8953 9.13084 5.73891 8.8425 5.58835C9.31652 5.38815 9.80017 5.21154 10.2917 5.05919C10.402 5.55764 10.4871 6.06133 10.5467 6.56835ZM6.06667 3.86252C6.59667 2.32085 7.38167 1.37919 7.98667 1.37919C8.63084 1.37835 9.4675 2.39419 10.015 4.04335C10.0506 4.15113 10.0839 4.25947 10.115 4.36835C9.39628 4.5911 8.69308 4.86113 8.01 5.17669C7.32919 4.85726 6.62759 4.58414 5.91 4.35919C5.95834 4.19252 6.01056 4.02697 6.06667 3.86252ZM5.73334 5.04919C6.22258 5.20317 6.70375 5.38173 7.175 5.58419C6.59056 5.8853 6.02167 6.21335 5.46834 6.56835C5.535 6.03669 5.62417 5.52752 5.73334 5.04919ZM5.46917 11.4325C5.74528 11.6097 6.02556 11.78 6.31 11.9434C6.6 12.11 6.89361 12.27 7.19084 12.4234C6.71619 12.6328 6.23111 12.8178 5.7375 12.9775C5.62281 12.4675 5.53326 11.9522 5.46917 11.4334M10.0158 14.055C9.79413 14.7609 9.44442 15.4199 8.98417 15.9992C8.87053 16.1652 8.72405 16.3062 8.55377 16.4135C8.38349 16.5207 8.19303 16.5918 7.99417 16.6225C7.38667 16.6225 6.6125 15.7184 6.08584 14.2092C6.02361 14.0309 5.96639 13.8509 5.91417 13.6692C6.63516 13.4366 7.33956 13.1554 8.0225 12.8275C8.71138 13.1456 9.42041 13.4182 10.145 13.6434C10.105 13.7817 10.0619 13.9189 10.0158 14.055ZM10.3175 12.9517C9.8196 12.7962 9.32958 12.6165 8.84917 12.4134C9.13195 12.265 9.41667 12.1081 9.70334 11.9425C9.99778 11.7725 10.2844 11.5984 10.5633 11.42C10.5076 11.9344 10.4256 12.4457 10.3175 12.9517ZM10.69 8.99919C10.69 9.5053 10.6742 10.0109 10.6425 10.5159C10.2317 10.7942 9.79834 11.0659 9.3475 11.3259C8.8975 11.585 8.45334 11.8234 8.01667 12.0392C7.55722 11.8192 7.10667 11.582 6.665 11.3275C6.22611 11.0747 5.79722 10.8056 5.37834 10.52C5.33945 10.0145 5.32 9.50835 5.32 9.00169C5.32 8.49558 5.33889 7.98974 5.37667 7.48419C6.21438 6.91225 7.09411 6.40442 8.00834 5.96502C8.46167 6.18558 8.90695 6.42196 9.34417 6.67419C9.78306 6.92641 10.2136 7.1928 10.6358 7.47335C10.6719 7.98113 10.69 8.48974 10.69 8.99919ZM11.4867 4.75502C13.0883 4.44419 14.295 4.65335 14.5975 5.17752C14.92 5.73585 14.4583 6.96752 13.3025 8.26585C13.2386 8.33752 13.1725 8.40947 13.1042 8.48169C12.5412 7.97279 11.9443 7.50281 11.3175 7.07502C11.2544 6.33248 11.1416 5.595 10.98 4.86752C11.1522 4.8253 11.3211 4.7878 11.4867 4.75502ZM11.3783 7.99252C11.8013 8.30123 12.208 8.63167 12.5967 8.98252C12.2098 9.339 11.8045 9.67501 11.3825 9.98919C11.3953 9.65919 11.4017 9.32919 11.4017 8.99919C11.4017 8.66363 11.3939 8.32808 11.3783 7.99252ZM14.6025 12.8167C14.2992 13.3425 13.1292 13.5617 11.5583 13.265C11.3783 13.2311 11.1939 13.1906 11.005 13.1434C11.1627 12.4065 11.2705 11.6598 11.3275 10.9084C11.9532 10.4734 12.5482 9.99585 13.1083 9.47919C13.2067 9.58085 13.3 9.68197 13.3883 9.78252C13.8892 10.3272 14.2855 10.9594 14.5575 11.6475C14.6445 11.829 14.6934 12.0263 14.7012 12.2274C14.7089 12.4285 14.6753 12.6291 14.6025 12.8167Z" fill="#FF1447"/>
</svg>
