<svg width="20" height="20" viewBox="0 0 20 20" fill="none" xmlns="http://www.w3.org/2000/svg">
<path d="M13.5117 0.63501L13.4492 0.960843C13.3525 1.57834 13.3875 1.75501 13.6525 1.98418L13.9083 2.19584L13.6433 3.37751C13.485 4.08251 13.2908 4.67334 13.1675 4.86751C13.0617 5.03501 12.9383 5.28168 12.9117 5.41418C12.8675 5.57251 12.7175 5.73168 12.4883 5.87251C12.2858 5.98751 11.8883 6.29584 11.6067 6.54334C11.3817 6.74584 11.2267 6.87001 11.1425 6.92334L10.8675 7.14084C10.7968 7.24572 10.7436 7.36139 10.71 7.48334C10.6908 7.57251 10.7017 7.63168 10.73 7.67501C10.7578 7.71668 10.8044 7.7464 10.87 7.76418C10.947 7.78167 11.0262 7.78812 11.105 7.78334C11.2834 7.77116 11.46 7.73986 11.6317 7.69001C11.69 7.67418 11.7358 7.65918 11.7758 7.64584C11.8375 7.57001 11.98 7.42668 12.2325 7.17751C12.9025 6.51668 13.1583 6.15501 12.8942 6.25251C12.7967 6.28751 12.8408 6.19918 13.0083 6.02251C13.3617 5.67834 13.5642 5.15834 13.9875 3.52751C14.3225 2.24001 14.3225 2.22168 14.5692 2.22168C14.685 2.22168 15.0125 2.24168 15.0125 2.24168V0.63501H14.2608H13.5117ZM16.7108 3.27251C16.6575 3.27251 16.5692 3.35251 16.5167 3.44084C16.42 3.59918 16.5342 3.69584 17.9892 4.60418C18.8533 5.15168 19.55 5.61834 19.5325 5.65418C19.515 5.68001 18.8092 6.13918 17.9633 6.66834C16.4283 7.62001 16.42 7.62918 16.5608 7.82334C16.7375 8.05251 16.5608 8.13168 18.5533 6.88834L20 5.96251V5.26584L18.3858 4.26918C17.5133 3.72251 16.755 3.28168 16.7108 3.27251ZM3.30667 3.37001C3.2625 3.37001 2.50417 3.82001 1.63167 4.35751L0 5.35418V6.05084L1.6225 7.06501C2.5225 7.62001 3.28083 8.07918 3.31583 8.07918C3.35083 8.07918 3.42167 7.99918 3.4925 7.90251C3.59833 7.73501 3.50917 7.66418 2.01917 6.72084C0.6 5.83001 0.45 5.70668 0.591667 5.61001C0.68 5.54834 1.35 5.13334 2.07333 4.68418C3.7225 3.67001 3.63417 3.74001 3.50167 3.52834C3.44917 3.44084 3.36 3.36168 3.3075 3.37001H3.30667ZM10.5433 3.38918C10.3 3.38751 9.77667 3.75834 8.21 5.03751C8.1425 5.19834 8.13667 5.30918 8.1675 5.38084C8.18806 5.42918 8.22389 5.46529 8.275 5.48918C8.325 5.51418 8.39 5.52918 8.46167 5.53501C8.60417 5.54751 8.7725 5.52501 8.90833 5.49834L9 5.47751C9.03171 5.43575 9.07282 5.40206 9.12 5.37918C9.21667 5.32584 9.6225 4.95584 10.0283 4.55918C10.7425 3.83584 10.91 3.50918 10.6192 3.40334C10.5956 3.39288 10.5691 3.38803 10.5433 3.38918ZM12.3733 3.89168C12.1592 3.89751 11.7733 4.14584 11.1125 4.67334C10.7808 4.94251 10.5708 5.08751 10.4583 5.11751L10.0217 5.46251C9.8575 5.76251 9.83333 5.94834 9.87667 6.05084C9.88751 6.07613 9.90326 6.09901 9.923 6.11818C9.94274 6.13735 9.96607 6.15241 9.99167 6.16251C10.0551 6.18859 10.1231 6.20135 10.1917 6.20001C10.3552 6.19806 10.5178 6.17424 10.675 6.12918C10.7568 6.10671 10.8377 6.08114 10.9175 6.05251L10.9417 6.04251L10.9858 6.01918C11.0692 5.91168 11.2608 5.70918 11.5008 5.47584C12.2592 4.74418 12.6467 4.22418 12.5675 4.03001C12.5317 3.93584 12.47 3.88834 12.3733 3.89168ZM10.3533 4.79168C10.2917 4.79834 10.1533 4.90501 9.90417 5.12334C9.54417 5.44168 9.15167 5.62501 9.01583 5.54334L8.92083 5.56334C8.7825 5.59084 8.61 5.61334 8.45583 5.60084C8.38317 5.5966 8.31195 5.57879 8.24583 5.54834C8.18356 5.51962 8.13382 5.46929 8.10583 5.40668C8.075 5.33168 8.075 5.23834 8.11 5.11918L7.56833 5.56418L6.3425 6.57834V8.22251L10.3592 5.05834C10.3583 5.02369 10.3628 4.98911 10.3725 4.95584C10.4033 4.84418 10.4017 4.78751 10.3533 4.79251V4.79168ZM12.0817 5.32418C12.0208 5.32418 11.9192 5.41001 11.7567 5.58251C11.5358 5.81834 11.1883 6.04668 11.0042 6.09334L10.9758 6.10834L10.8842 6.14334C10.8336 6.16056 10.7703 6.17945 10.6942 6.20001C10.5442 6.24084 10.3575 6.27834 10.1908 6.27418C10.1122 6.27478 10.0342 6.25947 9.96167 6.22918C9.89287 6.2012 9.83781 6.14734 9.80833 6.07918C9.76 5.96334 9.77917 5.80084 9.885 5.57001L6.34167 8.36084V9.36501H7.89833L11.2 6.77168C11.2856 6.67612 11.4153 6.54695 11.5892 6.38418C12.0558 5.95168 12.1617 5.80251 12.1617 5.58168C12.1617 5.41001 12.1425 5.32334 12.0817 5.32334V5.32418ZM12.8675 6.94918L12.585 7.23084C12.4267 7.38084 12.1442 7.56584 11.9508 7.64501L11.9125 7.66168L11.91 7.66584L11.9017 7.67418C11.8942 7.68001 11.8908 7.68084 11.885 7.68334C11.808 7.71304 11.7296 7.7389 11.65 7.76084C11.4735 7.81261 11.2919 7.84475 11.1083 7.85668C11.0216 7.8627 10.9344 7.85511 10.85 7.83418C10.7766 7.81834 10.7117 7.77551 10.6683 7.71418C10.6272 7.65251 10.6175 7.57056 10.6392 7.46834C10.6561 7.39567 10.6827 7.3256 10.7183 7.26001L8.05417 9.36501H11.5975L12.0208 8.88001C12.6025 8.20168 12.8675 7.71668 12.8675 7.30168V6.94918Z" fill="#FF1447"/>
</svg>
