<svg width="28" height="28" viewBox="0 0 28 28" fill="none" xmlns="http://www.w3.org/2000/svg">
<path d="M12.75 5.25V0.25H15.25V5.25H12.75ZM21.0625 8.6875L19.3438 6.96875L22.8438 3.375L24.5938 5.15625L21.0625 8.6875ZM22.75 15.25V12.75H27.75V15.25H22.75ZM12.75 27.75V22.75H15.25V27.75H12.75ZM6.9375 8.625L3.375 5.15625L5.15625 3.40625L8.6875 6.9375L6.9375 8.625ZM22.8125 24.625L19.3438 21.0312L21.0312 19.3438L24.5938 22.7812L22.8125 24.625ZM0.25 15.25V12.75H5.25V15.25H0.25ZM5.15625 24.625L3.40625 22.8438L6.90625 19.3438L7.8125 20.1875L8.71875 21.0625L5.15625 24.625ZM14 21.5C11.9167 21.5 10.1458 20.7708 8.6875 19.3125C7.22917 17.8542 6.5 16.0833 6.5 14C6.5 11.9167 7.22917 10.1458 8.6875 8.6875C10.1458 7.22917 11.9167 6.5 14 6.5C16.0833 6.5 17.8542 7.22917 19.3125 8.6875C20.7708 10.1458 21.5 11.9167 21.5 14C21.5 16.0833 20.7708 17.8542 19.3125 19.3125C17.8542 20.7708 16.0833 21.5 14 21.5ZM14 19C15.375 19 16.5521 18.5104 17.5312 17.5312C18.5104 16.5521 19 15.375 19 14C19 12.625 18.5104 11.4479 17.5312 10.4688C16.5521 9.48958 15.375 9 14 9C12.625 9 11.4479 9.48958 10.4688 10.4688C9.48958 11.4479 9 12.625 9 14C9 15.375 9.48958 16.5521 10.4688 17.5312C11.4479 18.5104 12.625 19 14 19Z" fill="#17C3B2"/>
</svg>
