<svg width="28" height="26" viewBox="0 0 28 26" fill="none" xmlns="http://www.w3.org/2000/svg">
<path d="M13.875 25.5L19.5625 10.5H22.1875L27.875 25.5H25.25L23.9062 21.6875H17.8438L16.5 25.5H13.875ZM4 21.75L2.25 20L8.5625 13.6875C7.83333 12.9583 7.17167 12.125 6.5775 11.1875C5.98333 10.25 5.43667 9.1875 4.9375 8H7.5625C7.97917 8.8125 8.39583 9.52083 8.8125 10.125C9.22917 10.7292 9.72917 11.3333 10.3125 11.9375C11 11.25 11.7137 10.2863 12.4537 9.04625C13.1937 7.80625 13.7508 6.62417 14.125 5.5H0.25V3H9V0.5H11.5V3H20.25V5.5H16.625C16.1875 7 15.5312 8.54167 14.6562 10.125C13.7812 11.7083 12.9167 12.9167 12.0625 13.75L15.0625 16.8125L14.125 19.375L10.3125 15.4688L4 21.75ZM18.625 19.5H23.125L20.875 13.125L18.625 19.5Z" fill="#17C3B2"/>
</svg>
