<svg width="18" height="17" viewBox="0 0 18 17" fill="none" xmlns="http://www.w3.org/2000/svg">
<path d="M17.6836 15.5953L13.3086 6.84531C13.2567 6.74151 13.1769 6.65422 13.0782 6.59321C12.9794 6.5322 12.8657 6.49989 12.7496 6.49989C12.6336 6.49989 12.5198 6.5322 12.4211 6.59321C12.3223 6.65422 12.2425 6.74151 12.1906 6.84531L10.4945 10.2383C9.16507 10.1635 7.88593 9.7043 6.8125 8.91641C8.07194 7.57145 8.83504 5.83719 8.97578 4H10.875C11.0408 4 11.1997 3.93415 11.3169 3.81694C11.4342 3.69973 11.5 3.54076 11.5 3.375C11.5 3.20924 11.4342 3.05027 11.3169 2.93306C11.1997 2.81585 11.0408 2.75 10.875 2.75H6.5V1.5C6.5 1.33424 6.43415 1.17527 6.31694 1.05806C6.19973 0.940848 6.04076 0.875 5.875 0.875C5.70924 0.875 5.55027 0.940848 5.43306 1.05806C5.31585 1.17527 5.25 1.33424 5.25 1.5V2.75H0.875C0.70924 2.75 0.550268 2.81585 0.433058 2.93306C0.315848 3.05027 0.25 3.20924 0.25 3.375C0.25 3.54076 0.315848 3.69973 0.433058 3.81694C0.550268 3.93415 0.70924 4 0.875 4H7.72109C7.58189 5.53176 6.93168 6.97222 5.875 8.08984C5.21653 7.39505 4.71088 6.57005 4.39062 5.66797C4.36429 5.58926 4.32255 5.51659 4.26782 5.45419C4.2131 5.39179 4.1465 5.34092 4.07191 5.30453C3.99731 5.26815 3.91622 5.24699 3.83336 5.24228C3.7505 5.23758 3.66753 5.24942 3.5893 5.27713C3.51106 5.30483 3.43913 5.34784 3.37769 5.40364C3.31626 5.45944 3.26656 5.52692 3.23148 5.60214C3.1964 5.67736 3.17666 5.75881 3.1734 5.84174C3.17014 5.92467 3.18343 6.00742 3.2125 6.08516C3.58536 7.13974 4.17271 8.10562 4.9375 8.92188C3.75997 9.78718 2.33627 10.2526 0.875 10.25C0.70924 10.25 0.550268 10.3158 0.433058 10.4331C0.315848 10.5503 0.25 10.7092 0.25 10.875C0.25 11.0408 0.315848 11.1997 0.433058 11.3169C0.550268 11.4342 0.70924 11.5 0.875 11.5C2.68796 11.502 4.44896 10.8945 5.875 9.775C7.03873 10.6843 8.42793 11.2598 9.89375 11.4398L7.81562 15.5953C7.74145 15.7436 7.7292 15.9152 7.78158 16.0725C7.83396 16.2298 7.94667 16.3598 8.09492 16.434C8.24317 16.5082 8.41482 16.5204 8.5721 16.468C8.72938 16.4157 8.85942 16.3029 8.93359 16.1547L10.0109 14H15.4883L16.5656 16.1547C16.6176 16.2585 16.6974 16.3458 16.7962 16.4068C16.895 16.4678 17.0089 16.5001 17.125 16.5C17.2315 16.4999 17.3363 16.4727 17.4293 16.4207C17.5223 16.3688 17.6005 16.294 17.6565 16.2034C17.7124 16.1127 17.7443 16.0093 17.749 15.9029C17.7538 15.7964 17.7313 15.6906 17.6836 15.5953ZM10.6359 12.75L12.75 8.52266L14.8633 12.75H10.6359Z" fill="#FF1447"/>
</svg>
