<svg width="16" height="16" viewBox="0 0 16 16" fill="none" xmlns="http://www.w3.org/2000/svg">
<path d="M14.0333 0.5H1.96667C1.57768 0.5 1.20463 0.654523 0.929577 0.929577C0.654523 1.20463 0.5 1.57768 0.5 1.96667V14.0333C0.5 14.4223 0.654523 14.7954 0.929577 15.0704C1.20463 15.3455 1.57768 15.5 1.96667 15.5H14.0333C14.2259 15.5 14.4167 15.4621 14.5946 15.3884C14.7725 15.3146 14.9342 15.2066 15.0704 15.0704C15.2066 14.9342 15.3146 14.7725 15.3884 14.5946C15.4621 14.4167 15.5 14.2259 15.5 14.0333V1.96667C15.5 1.77406 15.4621 1.58334 15.3884 1.4054C15.3146 1.22745 15.2066 1.06577 15.0704 0.929577C14.9342 0.793384 14.7725 0.68535 14.5946 0.611643C14.4167 0.537936 14.2259 0.5 14.0333 0.5ZM9.2 8.83333H7.325V14.2H5.83333V8.83333H3.95833V7.61667H9.2V8.83333ZM14.0333 13.2333C13.9127 13.4898 13.7183 13.7046 13.475 13.85C13.219 14.0075 12.9367 14.1176 12.6417 14.175C12.3127 14.2429 11.9776 14.2764 11.6417 14.275C11.298 14.2747 10.955 14.244 10.6167 14.1833C10.3291 14.1244 10.0494 14.0322 9.78333 13.9083V12.4833L9.73333 12.4333H9.78333V12.4917C10.034 12.6872 10.3157 12.8393 10.6167 12.9417C10.9172 13.0561 11.2367 13.1127 11.5583 13.1083C11.7264 13.1113 11.8942 13.0945 12.0583 13.0583C12.1816 13.0295 12.2997 12.9817 12.4083 12.9167C12.4934 12.8648 12.5648 12.7934 12.6167 12.7083C12.668 12.6115 12.6905 12.502 12.6817 12.3927C12.6728 12.2834 12.6329 12.179 12.5667 12.0917C12.4883 11.9818 12.3892 11.8884 12.275 11.8167C12.1363 11.7191 11.9884 11.6354 11.8333 11.5667L11.275 11.3333C10.833 11.1513 10.4414 10.8655 10.1333 10.5C9.8755 10.1892 9.73929 9.79535 9.75 9.39167C9.74029 9.08499 9.80914 8.78092 9.95 8.50833C10.0844 8.27073 10.2728 8.06806 10.5 7.91667C10.7531 7.74827 11.0359 7.6295 11.3333 7.56667C11.6585 7.49183 11.9913 7.45547 12.325 7.45833C12.6288 7.45409 12.9325 7.47359 13.2333 7.51667C13.4836 7.55579 13.7293 7.62 13.9667 7.70833V9.08333C13.857 9.00514 13.7397 8.93814 13.6167 8.88333C13.4842 8.8263 13.3477 8.77895 13.2083 8.74167C13.0748 8.70257 12.9382 8.6747 12.8 8.65833C12.6725 8.64631 12.5442 8.64631 12.4167 8.65833C12.2596 8.65573 12.1029 8.67253 11.95 8.70833C11.8246 8.73464 11.7038 8.77958 11.5917 8.84167C11.5042 8.89323 11.43 8.96458 11.375 9.05C11.3251 9.133 11.2992 9.22817 11.3 9.325C11.298 9.42837 11.327 9.52997 11.3833 9.61667C11.4518 9.71132 11.5364 9.79313 11.6333 9.85833C11.7508 9.95187 11.8796 10.0303 12.0167 10.0917L12.5417 10.325C12.7831 10.4248 13.017 10.5418 13.2417 10.675C13.4392 10.7831 13.6191 10.9208 13.775 11.0833C13.9278 11.2314 14.0471 11.4104 14.125 11.6083C14.2049 11.8358 14.2444 12.0756 14.2417 12.3167C14.2357 12.6279 14.1647 12.9345 14.0333 13.2167V13.2333Z" fill="#FF1447"/>
</svg>
