<svg width="12" height="12" viewBox="0 0 12 12" fill="none" xmlns="http://www.w3.org/2000/svg">
<path fill-rule="evenodd" clip-rule="evenodd" d="M8.84834 0.702488C8.73341 0.518852 8.56409 0.375617 8.36394 0.292721C8.16379 0.209825 7.94278 0.191391 7.73167 0.239988L6.23334 0.584154C6.07978 0.619447 5.92022 0.619447 5.76667 0.584154L4.26834 0.239988C4.05722 0.191391 3.83621 0.209825 3.63607 0.292721C3.43592 0.375617 3.2666 0.518852 3.15167 0.702488L2.335 2.00582C2.25167 2.13915 2.13917 2.25165 2.00584 2.33582L0.702504 3.15249C0.519185 3.26731 0.37616 3.43636 0.293282 3.63617C0.210403 3.83597 0.191782 4.05662 0.240003 4.26749L0.58417 5.76749C0.619335 5.92077 0.619335 6.08003 0.58417 6.23332L0.240003 7.73249C0.191595 7.94348 0.210122 8.16431 0.293009 8.36428C0.375897 8.56426 0.519027 8.73344 0.702504 8.84832L2.00584 9.66499C2.13917 9.74832 2.25167 9.86082 2.33584 9.99415L3.1525 11.2975C3.3875 11.6733 3.83584 11.8592 4.26834 11.76L5.76667 11.4158C5.92022 11.3805 6.07978 11.3805 6.23334 11.4158L7.7325 11.76C7.94349 11.8084 8.16432 11.7899 8.3643 11.707C8.56428 11.6241 8.73346 11.481 8.84834 11.2975L9.665 9.99415C9.74834 9.86082 9.86084 9.74832 9.99417 9.66499L11.2983 8.84832C11.4818 8.73328 11.6249 8.56391 11.7076 8.36377C11.7904 8.16363 11.8087 7.94268 11.76 7.73165L11.4167 6.23332C11.3814 6.07977 11.3814 5.92021 11.4167 5.76665L11.7608 4.26749C11.8093 4.05658 11.7909 3.83581 11.7082 3.63585C11.6255 3.43588 11.4825 3.26665 11.2992 3.15165L9.995 2.33499C9.86185 2.2515 9.74932 2.13897 9.66584 2.00582L8.84834 0.702488ZM8.42917 4.14165C8.48071 4.04688 8.49348 3.9358 8.46479 3.8318C8.43611 3.7278 8.3682 3.63897 8.27535 3.58402C8.18251 3.52907 8.07197 3.51228 7.96699 3.53717C7.86202 3.56206 7.77079 3.6267 7.7125 3.71749L5.53334 7.40582L4.2175 6.14582C4.17847 6.10574 4.13176 6.07393 4.08016 6.05229C4.02857 6.03065 3.97314 6.01962 3.91719 6.01987C3.86124 6.02011 3.80591 6.03162 3.75451 6.05371C3.7031 6.0758 3.65667 6.10801 3.61799 6.14843C3.5793 6.18886 3.54915 6.23665 3.52934 6.28898C3.50953 6.3413 3.50046 6.39708 3.50267 6.45299C3.50488 6.50889 3.51832 6.56378 3.5422 6.61438C3.56609 6.66498 3.59991 6.71025 3.64167 6.74749L5.33667 8.37165C5.38204 8.41503 5.43661 8.4476 5.49633 8.46693C5.55605 8.48625 5.61936 8.49184 5.68154 8.48326C5.74372 8.47469 5.80316 8.45218 5.85542 8.41741C5.90767 8.38265 5.9514 8.33652 5.98334 8.28249L8.42917 4.14165Z" fill="#FF1447"/>
</svg>
