<svg width="23" height="23" viewBox="0 0 23 23" fill="none" xmlns="http://www.w3.org/2000/svg">
<path fill-rule="evenodd" clip-rule="evenodd" d="M17.1595 0.97193C16.9311 0.606975 16.5946 0.32231 16.1968 0.157563C15.7991 -0.00718501 15.3599 -0.0438192 14.9403 0.0527607L11.9628 0.736755C11.6576 0.806896 11.3405 0.806896 11.0354 0.736755L8.05779 0.0527607C7.63825 -0.0438192 7.19904 -0.00718501 6.8013 0.157563C6.40356 0.32231 6.06707 0.606975 5.83868 0.97193L4.21574 3.56217C4.05014 3.82715 3.82657 4.05073 3.5616 4.21801L0.971535 5.84104C0.607233 6.06925 0.323004 6.40521 0.158302 6.8023C-0.00639905 7.19939 -0.0434038 7.63791 0.0524246 8.05698L0.736375 11.0381C0.806258 11.3427 0.806258 11.6592 0.736375 11.9639L0.0524246 14.9433C-0.0437763 15.3626 -0.00695773 15.8015 0.157762 16.1989C0.322481 16.5964 0.606918 16.9326 0.971535 17.1609L3.5616 18.7839C3.82657 18.9496 4.05014 19.1731 4.2174 19.4381L5.84033 22.0284C6.30734 22.7753 7.1983 23.1446 8.05779 22.9475L11.0354 22.2635C11.3405 22.1934 11.6576 22.1934 11.9628 22.2635L14.942 22.9475C15.3613 23.0437 15.8001 23.0069 16.1976 22.8422C16.595 22.6775 16.9312 22.393 17.1595 22.0284L18.7824 19.4381C18.948 19.1731 19.1716 18.9496 19.4365 18.7839L22.0283 17.1609C22.3929 16.9323 22.6772 16.5957 22.8416 16.1979C23.0061 15.8002 23.0424 15.361 22.9457 14.9416L22.2634 11.9639C22.1933 11.6587 22.1933 11.3416 22.2634 11.0364L22.9474 8.05698C23.0437 7.63784 23.0072 7.19908 22.8427 6.80167C22.6783 6.40426 22.3942 6.06792 22.0299 5.83939L19.4382 4.21635C19.1736 4.05043 18.95 3.82678 18.784 3.56217L17.1595 0.97193ZM16.3265 7.80691C16.4289 7.61854 16.4543 7.39779 16.3973 7.1911C16.3403 6.9844 16.2053 6.80788 16.0208 6.69867C15.8363 6.58947 15.6166 6.55609 15.408 6.60556C15.1994 6.65503 15.0181 6.78349 14.9023 6.96392L10.5717 14.2941L7.95677 11.79C7.87919 11.7103 7.78637 11.6471 7.68384 11.6041C7.5813 11.5611 7.47116 11.5392 7.35997 11.5397C7.24878 11.5401 7.13883 11.563 7.03668 11.6069C6.93452 11.6508 6.84225 11.7148 6.76538 11.7952C6.6885 11.8755 6.62858 11.9705 6.58921 12.0745C6.54984 12.1785 6.53181 12.2893 6.5362 12.4004C6.54059 12.5115 6.56731 12.6206 6.61477 12.7212C6.66223 12.8217 6.72946 12.9117 6.81244 12.9857L10.1809 16.2136C10.271 16.2998 10.3795 16.3645 10.4981 16.4029C10.6168 16.4413 10.7426 16.4524 10.8662 16.4354C10.9898 16.4184 11.1079 16.3736 11.2117 16.3045C11.3156 16.2354 11.4025 16.1438 11.4659 16.0364L16.3265 7.80691Z" fill="#17C3B2"/>
</svg>
